<svg width="64" height="64" viewBox="0 0 64 64" fill="none" xmlns="http://www.w3.org/2000/svg">
<rect width="64" height="64" rx="32" fill="white"/>
<path d="M32.0002 23.1111C32.0002 21.2251 31.251 19.4164 29.9174 18.0828C28.5838 16.7492 26.7751 16 24.8891 16H14.2224V42.6667H26.6669C28.0813 42.6667 29.4379 43.2286 30.4381 44.2288C31.4383 45.229 32.0002 46.5855 32.0002 48M32.0002 23.1111V48M32.0002 23.1111C32.0002 21.2251 32.7494 19.4164 34.083 18.0828C35.4166 16.7492 37.2253 16 39.1113 16H49.778V42.6667H37.3335C35.919 42.6667 34.5625 43.2286 33.5623 44.2288C32.5621 45.229 32.0002 46.5855 32.0002 48" stroke="#0BC099" stroke-width="4" stroke-linecap="round" stroke-linejoin="round"/>
</svg>
